<svg width="250" height="250" viewBox="0 0 250 250" fill="none" xmlns="http://www.w3.org/2000/svg">
<path d="M248 163L207.074 163L207.074 207.325L163 207.325L163 248L227.537 248C239.253 248 248 238.803 248 226.62L248 163Z" fill="white"/>
<path d="M87 248L87 207.074L42.6748 207.074L42.6748 163L2 163L2 227.537C2.00001 239.253 11.1968 248 23.3804 248L87 248Z" fill="white"/>
<path d="M2.00001 87H42.9259L42.9259 42.6748L87 42.6748V2L22.463 2.00001C10.7467 2.00001 2 11.1968 2 23.3804L2.00001 87Z" fill="white"/>
<path d="M162 2L162 42.9259L206.325 42.9259L206.325 87L247 87L247 22.463C247 10.7467 237.803 2 225.62 2L162 2Z" fill="white"/>
</svg>
